<svg width="32" height="32" viewBox="0 0 32 32" fill="none" xmlns="http://www.w3.org/2000/svg">
<path d="M12.6665 20.0229C18.0889 20.0229 22.6665 20.9151 22.6665 24.3609C22.6665 27.8068 18.0595 28.6693 12.6665 28.6693C7.24411 28.6693 2.6665 27.7757 2.6665 24.3312C2.6665 20.8853 7.27214 20.0229 12.6665 20.0229ZM25.3318 10.0026C25.9934 10.0026 26.5304 10.5485 26.5304 11.2181V12.7864H28.1345C28.7948 12.7864 29.3332 13.3323 29.3332 14.0019C29.3332 14.6715 28.7948 15.2174 28.1345 15.2174H26.5304V16.7871C26.5304 17.4567 25.9934 18.0026 25.3318 18.0026C24.6715 18.0026 24.1332 17.4567 24.1332 16.7871V15.2174H22.5318C21.8702 15.2174 21.3332 14.6715 21.3332 14.0019C21.3332 13.3323 21.8702 12.7864 22.5318 12.7864H24.1332V11.2181C24.1332 10.5485 24.6715 10.0026 25.3318 10.0026ZM12.6665 3.33594C16.3393 3.33594 19.2833 6.31811 19.2833 10.0384C19.2833 13.7587 16.3393 16.7408 12.6665 16.7408C8.99374 16.7408 6.04966 13.7587 6.04966 10.0384C6.04966 6.31811 8.99374 3.33594 12.6665 3.33594Z" fill="white"/>
</svg>
